<svg width="1024" height="328" viewBox="0 0 1024 328" fill="none" xmlns="http://www.w3.org/2000/svg">
<path d="M392.107 48.8C412.774 48.8 428.64 52.4667 439.707 59.8C450.774 67 456.307 78.8667 456.307 95.4C456.307 112.067 450.707 124.133 439.507 131.6C428.307 138.933 412.307 142.6 391.507 142.6H381.707V189H350.507V52.4C357.307 51.0667 364.507 50.1333 372.107 49.6C379.707 49.0667 386.374 48.8 392.107 48.8ZM394.107 75.4C391.84 75.4 389.574 75.4667 387.307 75.6C385.174 75.7333 383.307 75.8667 381.707 76V116H391.507C402.307 116 410.44 114.533 415.907 111.6C421.374 108.667 424.107 103.2 424.107 95.2C424.107 91.3333 423.374 88.1333 421.907 85.6C420.574 83.0667 418.574 81.0667 415.907 79.6C413.374 78 410.24 76.9333 406.507 76.4C402.774 75.7333 398.64 75.4 394.107 75.4ZM574.524 83.8C568.524 104.067 562.257 123.067 555.724 140.8C549.191 158.533 542.057 175.733 534.324 192.4C531.524 198.4 528.724 203.467 525.924 207.6C523.124 211.867 520.057 215.333 516.724 218C513.391 220.8 509.591 222.8 505.324 224C501.191 225.333 496.324 226 490.724 226C486.057 226 481.724 225.533 477.724 224.6C473.857 223.8 470.657 222.867 468.124 221.8L473.324 198C476.391 199.067 479.124 199.8 481.524 200.2C483.924 200.6 486.457 200.8 489.124 200.8C494.457 200.8 498.524 199.333 501.324 196.4C504.257 193.6 506.724 189.667 508.724 184.6C501.924 171.267 495.124 156.333 488.324 139.8C481.524 123.133 475.124 104.467 469.124 83.8H500.724C502.057 89 503.591 94.6667 505.324 100.8C507.191 106.8 509.124 112.933 511.124 119.2C513.124 125.333 515.124 131.333 517.124 137.2C519.257 143.067 521.257 148.4 523.124 153.2C524.857 148.4 526.657 143.067 528.524 137.2C530.391 131.333 532.191 125.333 533.924 119.2C535.791 112.933 537.524 106.8 539.124 100.8C540.857 94.6667 542.391 89 543.724 83.8H574.524ZM637.182 115.8L657.982 83.8H688.782L652.782 134.4C660.782 144.4 668.049 154.133 674.582 163.6C681.115 173.067 686.315 181.533 690.182 189H658.182C657.115 187 655.782 184.533 654.182 181.6C652.582 178.533 650.782 175.4 648.782 172.2C646.782 168.867 644.649 165.6 642.382 162.4C640.249 159.067 638.115 156.067 635.982 153.4C633.982 155.933 631.915 158.733 629.782 161.8C627.782 164.867 625.849 168 623.982 171.2C622.115 174.267 620.249 177.333 618.382 180.4C616.649 183.467 615.115 186.333 613.782 189H583.382C584.982 185.667 587.182 181.733 589.982 177.2C592.782 172.667 595.782 168 598.982 163.2C602.315 158.267 605.782 153.4 609.382 148.6C612.982 143.667 616.515 139.067 619.982 134.8C613.982 126.4 607.982 117.933 601.982 109.4C595.982 100.733 590.049 92.2 584.182 83.8H616.382L637.182 115.8ZM735.924 189H706.124V83.8H735.924V189ZM738.724 53.4C738.724 58.8667 736.924 63.2 733.324 66.4C729.857 69.4667 725.724 71 720.924 71C716.124 71 711.924 69.4667 708.324 66.4C704.857 63.2 703.124 58.8667 703.124 53.4C703.124 47.9333 704.857 43.6667 708.324 40.6C711.924 37.4 716.124 35.8 720.924 35.8C725.724 35.8 729.857 37.4 733.324 40.6C736.924 43.6667 738.724 47.9333 738.724 53.4ZM758.937 137.2C758.937 127.867 760.337 119.733 763.137 112.8C766.07 105.733 769.87 99.8667 774.537 95.2C779.203 90.5333 784.537 87 790.537 84.6C796.67 82.2 802.937 81 809.337 81C824.27 81 836.07 85.6 844.737 94.8C853.403 103.867 857.737 117.267 857.737 135C857.737 136.733 857.67 138.667 857.537 140.8C857.403 142.8 857.27 144.6 857.137 146.2H789.537C790.203 152.333 793.07 157.2 798.137 160.8C803.203 164.4 810.003 166.2 818.537 166.2C824.003 166.2 829.337 165.733 834.537 164.8C839.87 163.733 844.203 162.467 847.537 161L851.537 185.2C849.937 186 847.803 186.8 845.137 187.6C842.47 188.4 839.47 189.067 836.137 189.6C832.937 190.267 829.47 190.8 825.737 191.2C822.003 191.6 818.27 191.8 814.537 191.8C805.07 191.8 796.803 190.4 789.737 187.6C782.803 184.8 777.003 181 772.337 176.2C767.803 171.267 764.403 165.467 762.137 158.8C760.003 152.133 758.937 144.933 758.937 137.2ZM828.937 125.8C828.803 123.267 828.337 120.8 827.537 118.4C826.87 116 825.737 113.867 824.137 112C822.67 110.133 820.737 108.6 818.337 107.4C816.07 106.2 813.203 105.6 809.737 105.6C806.403 105.6 803.537 106.2 801.137 107.4C798.737 108.467 796.737 109.933 795.137 111.8C793.537 113.667 792.27 115.867 791.337 118.4C790.537 120.8 789.937 123.267 789.537 125.8H828.937ZM910.933 167.6C916.4 167.6 920.267 167.067 922.533 166C924.8 164.933 925.933 162.867 925.933 159.8C925.933 157.4 924.467 155.333 921.533 153.6C918.6 151.733 914.133 149.667 908.133 147.4C903.467 145.667 899.2 143.867 895.333 142C891.6 140.133 888.4 137.933 885.733 135.4C883.067 132.733 881 129.6 879.533 126C878.067 122.4 877.333 118.067 877.333 113C877.333 103.133 881 95.3333 888.333 89.6C895.667 83.8667 905.733 81 918.533 81C924.933 81 931.067 81.6 936.933 82.8C942.8 83.8667 947.467 85.0667 950.933 86.4L945.733 109.6C942.267 108.4 938.467 107.333 934.333 106.4C930.333 105.467 925.8 105 920.733 105C911.4 105 906.733 107.6 906.733 112.8C906.733 114 906.933 115.067 907.333 116C907.733 116.933 908.533 117.867 909.733 118.8C910.933 119.6 912.533 120.533 914.533 121.6C916.667 122.533 919.333 123.6 922.533 124.8C929.067 127.2 934.467 129.6 938.733 132C943 134.267 946.333 136.8 948.733 139.6C951.267 142.267 953 145.267 953.933 148.6C955 151.933 955.533 155.8 955.533 160.2C955.533 170.6 951.6 178.467 943.733 183.8C936 189.133 925 191.8 910.733 191.8C901.4 191.8 893.6 191 887.333 189.4C881.2 187.8 876.933 186.467 874.533 185.4L879.533 161.2C884.6 163.2 889.8 164.8 895.133 166C900.467 167.067 905.733 167.6 910.933 167.6Z" fill="#333333"/>
<path d="M642.602 232.106C652.378 232.106 659.867 233.861 665.068 237.37C670.269 240.817 672.87 246.206 672.87 253.538C672.87 258.113 671.805 261.841 669.674 264.724C667.606 267.544 664.598 269.769 660.65 271.398C661.966 273.027 663.345 274.907 664.786 277.038C666.227 279.106 667.637 281.299 669.016 283.618C670.457 285.874 671.836 288.255 673.152 290.762C674.468 293.206 675.69 295.619 676.818 298H660.368C659.177 295.869 657.955 293.707 656.702 291.514C655.511 289.321 654.258 287.19 652.942 285.122C651.689 283.054 650.435 281.111 649.182 279.294C647.929 277.414 646.675 275.722 645.422 274.218H638.184V298H623.52V233.798C626.716 233.171 630.006 232.733 633.39 232.482C636.837 232.231 639.907 232.106 642.602 232.106ZM643.448 244.608C642.383 244.608 641.411 244.639 640.534 244.702C639.719 244.765 638.936 244.827 638.184 244.89V262.562H642.32C647.835 262.562 651.783 261.873 654.164 260.494C656.545 259.115 657.736 256.765 657.736 253.444C657.736 250.248 656.514 247.992 654.07 246.676C651.689 245.297 648.148 244.608 643.448 244.608ZM680.541 273.654C680.541 269.267 681.199 265.445 682.515 262.186C683.893 258.865 685.679 256.107 687.873 253.914C690.066 251.721 692.573 250.06 695.393 248.932C698.275 247.804 701.221 247.24 704.229 247.24C711.247 247.24 716.793 249.402 720.867 253.726C724.94 257.987 726.977 264.285 726.977 272.62C726.977 273.435 726.945 274.343 726.883 275.346C726.82 276.286 726.757 277.132 726.695 277.884H694.923C695.236 280.767 696.583 283.054 698.965 284.746C701.346 286.438 704.542 287.284 708.553 287.284C711.122 287.284 713.629 287.065 716.073 286.626C718.579 286.125 720.616 285.529 722.183 284.84L724.063 296.214C723.311 296.59 722.308 296.966 721.055 297.342C719.801 297.718 718.391 298.031 716.825 298.282C715.321 298.595 713.691 298.846 711.937 299.034C710.182 299.222 708.427 299.316 706.673 299.316C702.223 299.316 698.338 298.658 695.017 297.342C691.758 296.026 689.032 294.24 686.839 291.984C684.708 289.665 683.11 286.939 682.045 283.806C681.042 280.673 680.541 277.289 680.541 273.654ZM713.441 268.296C713.378 267.105 713.159 265.946 712.783 264.818C712.469 263.69 711.937 262.687 711.185 261.81C710.495 260.933 709.587 260.212 708.459 259.648C707.393 259.084 706.046 258.802 704.417 258.802C702.85 258.802 701.503 259.084 700.375 259.648C699.247 260.149 698.307 260.839 697.555 261.716C696.803 262.593 696.207 263.627 695.769 264.818C695.393 265.946 695.111 267.105 694.923 268.296H713.441ZM769.463 273.654C769.463 269.33 768.492 265.883 766.549 263.314C764.606 260.682 761.724 259.366 757.901 259.366C756.648 259.366 755.488 259.429 754.423 259.554C753.358 259.617 752.48 259.711 751.791 259.836V285.122C752.668 285.686 753.796 286.156 755.175 286.532C756.616 286.908 758.058 287.096 759.499 287.096C766.142 287.096 769.463 282.615 769.463 273.654ZM783.751 273.278C783.751 277.101 783.281 280.579 782.341 283.712C781.401 286.845 780.022 289.54 778.205 291.796C776.388 294.052 774.132 295.807 771.437 297.06C768.742 298.313 765.64 298.94 762.131 298.94C760.188 298.94 758.371 298.752 756.679 298.376C754.987 298 753.358 297.467 751.791 296.778V315.39H737.785V250.248C739.038 249.872 740.48 249.527 742.109 249.214C743.738 248.838 745.43 248.525 747.185 248.274C749.002 248.023 750.82 247.835 752.637 247.71C754.517 247.522 756.303 247.428 757.995 247.428C762.068 247.428 765.703 248.055 768.899 249.308C772.095 250.499 774.79 252.222 776.983 254.478C779.176 256.671 780.837 259.366 781.965 262.562C783.156 265.758 783.751 269.33 783.751 273.278ZM840.764 273.184C840.764 277.069 840.2 280.641 839.072 283.9C837.944 287.096 836.314 289.853 834.184 292.172C832.053 294.428 829.484 296.183 826.476 297.436C823.53 298.689 820.209 299.316 816.512 299.316C812.877 299.316 809.556 298.689 806.548 297.436C803.602 296.183 801.064 294.428 798.934 292.172C796.803 289.853 795.142 287.096 793.952 283.9C792.761 280.641 792.166 277.069 792.166 273.184C792.166 269.299 792.761 265.758 793.952 262.562C795.205 259.366 796.897 256.64 799.028 254.384C801.221 252.128 803.79 250.373 806.736 249.12C809.744 247.867 813.002 247.24 816.512 247.24C820.084 247.24 823.342 247.867 826.288 249.12C829.296 250.373 831.865 252.128 833.996 254.384C836.126 256.64 837.787 259.366 838.978 262.562C840.168 265.758 840.764 269.299 840.764 273.184ZM826.476 273.184C826.476 268.86 825.598 265.476 823.844 263.032C822.152 260.525 819.708 259.272 816.512 259.272C813.316 259.272 810.84 260.525 809.086 263.032C807.331 265.476 806.454 268.86 806.454 273.184C806.454 277.508 807.331 280.955 809.086 283.524C810.84 286.031 813.316 287.284 816.512 287.284C819.708 287.284 822.152 286.031 823.844 283.524C825.598 280.955 826.476 277.508 826.476 273.184ZM881.411 260.964C880.158 260.651 878.685 260.337 876.993 260.024C875.301 259.648 873.484 259.46 871.541 259.46C870.664 259.46 869.599 259.554 868.345 259.742C867.155 259.867 866.246 260.024 865.619 260.212V298H851.613V251.188C854.12 250.311 857.065 249.496 860.449 248.744C863.896 247.929 867.719 247.522 871.917 247.522C872.669 247.522 873.578 247.585 874.643 247.71C875.709 247.773 876.774 247.898 877.839 248.086C878.905 248.211 879.97 248.399 881.035 248.65C882.101 248.838 883.009 249.089 883.761 249.402L881.411 260.964ZM890.799 236.242L904.805 233.986V248.556H921.631V260.212H904.805V277.602C904.805 280.547 905.307 282.897 906.309 284.652C907.375 286.407 909.474 287.284 912.607 287.284C914.111 287.284 915.647 287.159 917.213 286.908C918.843 286.595 920.315 286.187 921.631 285.686L923.605 296.59C921.913 297.279 920.033 297.875 917.965 298.376C915.897 298.877 913.359 299.128 910.351 299.128C906.529 299.128 903.364 298.627 900.857 297.624C898.351 296.559 896.345 295.117 894.841 293.3C893.337 291.42 892.272 289.164 891.645 286.532C891.081 283.9 890.799 280.986 890.799 277.79V236.242Z" fill="#00AAFF"/>
<path d="M245.672 60.0479C273.882 86.3542 275.425 130.548 249.118 158.758L201.486 209.836L150.408 162.204C122.199 135.898 120.656 91.7038 146.962 63.4941C173.268 35.2845 217.462 33.7415 245.672 60.0479Z" fill="#007DBB"/>
<path d="M335.737 276.774C309.328 304.889 265.129 306.271 237.015 279.863L186.109 232.047L233.926 181.141C260.334 153.027 304.534 151.644 332.648 178.053C360.762 204.461 362.145 248.66 335.737 276.774Z" fill="#004F77"/>
<path d="M50.6202 267.313C78.5772 293.888 122.784 292.767 149.359 264.81L197.477 214.19L146.856 166.072C118.899 139.497 74.6924 140.618 48.1176 168.575C21.5428 196.532 22.6633 240.738 50.6202 267.313Z" fill="#00AAFF"/>
</svg>
